# Blender v2.81 (sub 16) OBJ File: ''
# www.blender.org
mtllib 0.mtl
o Curve.001
v -0.046668 0.000000 0.000664
v -0.044698 0.000000 0.001558
v -0.042909 0.000000 0.001558
v -0.042909 0.000000 0.006928
v -0.041833 0.000000 0.009075
v -0.044252 0.000000 0.009075
v -0.044252 0.000000 0.011762
v -0.025543 0.000000 0.019818
v -0.018739 0.000000 0.019818
v -0.016055 0.000000 0.019818
v -0.016055 0.000000 0.000664
v 0.017067 0.000000 0.002095
v 0.029062 0.000000 0.019818
v 0.029062 0.000000 0.001558
v 0.040521 0.000000 0.002811
v 0.061648 0.000000 0.001917
v 0.061648 0.000000 -0.008106
v 0.043921 0.000000 -0.009361
v 0.010263 0.000000 -0.012939
v -0.008714 0.000000 -0.015087
v -0.039866 0.000000 -0.013298
v -0.039866 0.000000 -0.010614
v -0.047563 0.000000 -0.010256
v -0.046668 -0.010000 0.000664
v -0.044698 -0.010000 0.001558
v -0.042909 -0.010000 0.001558
v -0.042909 -0.010000 0.006928
v -0.041833 -0.010000 0.009075
v -0.044252 -0.010000 0.009075
v -0.044252 -0.010000 0.011762
v -0.025543 -0.010000 0.019818
v -0.018739 -0.010000 0.019818
v -0.016055 -0.010000 0.019818
v -0.016055 -0.010000 0.000664
v 0.017067 -0.010000 0.002095
v 0.029062 -0.010000 0.019818
v 0.029062 -0.010000 0.001558
v 0.040521 -0.010000 0.002811
v 0.061648 -0.010000 0.001917
v 0.061648 -0.010000 -0.008106
v 0.043921 -0.010000 -0.009361
v 0.010263 -0.010000 -0.012939
v -0.008714 -0.010000 -0.015087
v -0.039866 -0.010000 -0.013298
v -0.039866 -0.010000 -0.010614
v -0.047563 -0.010000 -0.010256
vn 0.0000 1.0000 0.0000
vn 0.0000 0.0000 1.0000
vn 0.0000 -1.0000 -0.0002
vn 0.0000 -1.0000 0.0000
vn -0.0573 0.0000 -0.9984
vn 0.1124 0.0000 -0.9937
vn -1.0000 0.0000 0.0000
vn 0.1057 0.0000 -0.9944
vn -0.0465 0.0000 -0.9989
vn -0.9967 0.0000 0.0817
vn 0.0707 0.0000 -0.9975
vn 1.0000 0.0000 0.0000
vn -0.4134 0.0000 0.9105
vn -0.0432 0.0000 0.9991
vn -0.8282 0.0000 0.5605
vn -0.1087 0.0000 0.9941
vn 0.0423 0.0000 0.9991
vn -0.8941 0.0000 0.4478
vn 0.0000 0.0000 -1.0000
vn -0.3955 0.0000 0.9185
usemtl SVGMat
s off
f 21//1 19//1 20//1
f 22//1 19//1 21//1
f 22//1 18//1 19//1
f 23//1 18//1 22//1
f 1//1 18//1 23//1
f 1//1 17//1 18//1
f 1//1 11//1 17//1
f 11//1 16//1 17//1
f 2//1 11//1 1//1
f 2//1 3//1 11//1
f 3//1 10//1 11//1
f 12//1 14//1 11//1
f 14//1 16//1 11//1
f 4//1 10//1 3//1
f 12//1 13//1 14//1
f 15//1 16//1 14//1
f 5//1 10//1 4//1
f 7//1 5//1 6//1
f 7//1 10//1 5//1
f 8//1 10//1 7//1
f 9//2 10//2 8//2
f 44//3 43//3 42//3
f 45//4 44//4 42//4
f 45//4 42//4 41//4
f 46//4 45//4 41//4
f 24//4 46//4 41//4
f 24//4 41//4 40//4
f 24//4 40//4 34//4
f 34//4 40//4 39//4
f 25//4 24//4 34//4
f 25//4 34//4 26//4
f 26//4 34//4 33//4
f 35//4 34//4 37//4
f 37//4 34//4 39//4
f 27//4 26//4 33//4
f 35//4 37//4 36//4
f 38//4 37//4 39//4
f 28//4 27//4 33//4
f 30//4 29//4 28//4
f 30//4 28//4 33//4
f 31//4 30//4 33//4
f 32//2 31//2 33//2
f 21//5 20//5 43//5 44//5
f 20//6 19//6 42//6 43//6
f 22//7 21//7 44//7 45//7
f 19//8 18//8 41//8 42//8
f 23//9 22//9 45//9 46//9
f 1//10 23//10 46//10 24//10
f 18//11 17//11 40//11 41//11
f 17//12 16//12 39//12 40//12
f 2//13 1//13 24//13 25//13
f 3//2 2//2 25//2 26//2
f 11//12 10//12 33//12 34//12
f 12//14 11//14 34//14 35//14
f 4//7 3//7 26//7 27//7
f 13//15 12//15 35//15 36//15
f 14//12 13//12 36//12 37//12
f 15//16 14//16 37//16 38//16
f 16//17 15//17 38//17 39//17
f 5//18 4//18 27//18 28//18
f 7//7 6//7 29//7 30//7
f 6//19 5//19 28//19 29//19
f 8//20 7//20 30//20 31//20
f 9//2 8//2 31//2 32//2
f 10//2 9//2 32//2 33//2
