# Blender v2.81 (sub 16) OBJ File: ''
# www.blender.org
mtllib 17.mtl
o Curve
v -0.074319 0.000000 -0.026632
v -0.074319 0.000000 -0.039341
v -0.071454 0.000000 -0.039341
v -0.071454 0.000000 -0.042027
v -0.051760 0.000000 -0.044891
v -0.051760 0.000000 -0.047755
v -0.044778 0.000000 -0.048827
v -0.019536 0.000000 -0.054019
v -0.013448 0.000000 -0.052588
v -0.013448 0.000000 -0.029318
v -0.000736 0.000000 -0.026632
v -0.000736 0.000000 -0.025021
v -0.003242 0.000000 -0.025021
v -0.003065 0.000000 -0.023232
v 0.026835 0.000000 -0.018220
v 0.026835 0.000000 -0.014104
v 0.039010 0.000000 -0.011956
v 0.047245 0.000000 -0.012851
v 0.091468 0.000000 -0.004617
v 0.091468 0.000000 0.002722
v 0.047782 0.000000 -0.001931
v 0.037576 0.000000 -0.001214
v 0.034712 0.000000 -0.002825
v -0.025084 0.000000 0.002722
v 0.035251 0.000000 -0.000142
v 0.071235 0.000000 0.005050
v 0.071774 0.000000 0.013642
v 0.091468 0.000000 0.015612
v 0.091468 0.000000 0.025812
v 0.016451 0.000000 0.019548
v -0.014523 0.000000 0.020801
v -0.014523 0.000000 0.012209
v -0.022042 0.000000 0.012209
v -0.022400 0.000000 0.022412
v -0.001273 0.000000 0.021695
v 0.010005 0.000000 0.022234
v 0.010364 0.000000 0.041207
v 0.006963 0.000000 0.041207
v 0.003023 0.000000 0.042638
v -0.017743 0.000000 0.035121
v -0.017566 0.000000 0.024740
v -0.022578 0.000000 0.024201
v -0.032783 0.000000 0.023665
v -0.032425 0.000000 0.016864
v -0.033500 0.000000 -0.035224
v -0.040841 0.000000 -0.036835
v -0.046031 0.000000 -0.036657
v -0.045495 0.000000 0.016684
v -0.057670 0.000000 0.014537
v -0.065906 0.000000 0.014356
v -0.066442 0.000000 0.010239
v -0.068948 0.000000 0.010239
v -0.068948 0.000000 0.004692
v -0.059996 0.000000 0.004869
v -0.059818 0.000000 -0.015176
v -0.059818 0.000000 -0.020190
v -0.066800 0.000000 -0.021801
v -0.074319 0.000000 -0.021262
v -0.074319 -0.010000 -0.026632
v -0.074319 -0.010000 -0.039341
v -0.071454 -0.010000 -0.039341
v -0.071454 -0.010000 -0.042027
v -0.051760 -0.010000 -0.044891
v -0.051760 -0.010000 -0.047755
v -0.044778 -0.010000 -0.048827
v -0.019536 -0.010000 -0.054019
v -0.013448 -0.010000 -0.052588
v -0.013448 -0.010000 -0.029318
v -0.000736 -0.010000 -0.026632
v -0.000736 -0.010000 -0.025021
v -0.003242 -0.010000 -0.025021
v -0.003065 -0.010000 -0.023232
v 0.026835 -0.010000 -0.018220
v 0.026835 -0.010000 -0.014104
v 0.039010 -0.010000 -0.011956
v 0.047245 -0.010000 -0.012851
v 0.091468 -0.010000 -0.004617
v 0.091468 -0.010000 0.002722
v 0.047782 -0.010000 -0.001931
v 0.037576 -0.010000 -0.001214
v 0.034712 -0.010000 -0.002825
v -0.025084 -0.010000 0.002722
v 0.035251 -0.010000 -0.000142
v 0.071235 -0.010000 0.005050
v 0.071774 -0.010000 0.013642
v 0.091468 -0.010000 0.015612
v 0.091468 -0.010000 0.025812
v 0.016451 -0.010000 0.019548
v -0.014523 -0.010000 0.020801
v -0.014523 -0.010000 0.012209
v -0.022042 -0.010000 0.012209
v -0.022400 -0.010000 0.022412
v -0.001273 -0.010000 0.021695
v 0.010005 -0.010000 0.022234
v 0.010364 -0.010000 0.041207
v 0.006963 -0.010000 0.041207
v 0.003023 -0.010000 0.042638
v -0.017743 -0.010000 0.035121
v -0.017566 -0.010000 0.024740
v -0.022578 -0.010000 0.024201
v -0.032783 -0.010000 0.023665
v -0.032425 -0.010000 0.016864
v -0.033500 -0.010000 -0.035224
v -0.040841 -0.010000 -0.036835
v -0.046031 -0.010000 -0.036657
v -0.045495 -0.010000 0.016684
v -0.057670 -0.010000 0.014537
v -0.065906 -0.010000 0.014356
v -0.066442 -0.010000 0.010239
v -0.068948 -0.010000 0.010239
v -0.068948 -0.010000 0.004692
v -0.059996 -0.010000 0.004869
v -0.059818 -0.010000 -0.015176
v -0.059818 -0.010000 -0.020190
v -0.066800 -0.010000 -0.021801
v -0.074319 -0.010000 -0.021262
vn 0.0000 1.0000 0.0000
vn 0.0000 -1.0000 -0.0000
vn 0.0001 -1.0000 0.0000
vn 0.0000 -1.0000 -0.0001
vn 0.0000 -1.0000 -0.0002
vn 0.0000 -1.0000 0.0003
vn -0.0000 -1.0000 -0.0005
vn 0.0000 -1.0000 0.0002
vn -0.0001 -1.0000 0.0002
vn -0.0001 -1.0000 0.0004
vn -0.2015 0.0000 -0.9795
vn 0.2288 0.0000 -0.9735
vn 1.0000 0.0000 0.0000
vn -0.1518 0.0000 -0.9884
vn -1.0000 0.0000 0.0000
vn -0.1439 0.0000 -0.9896
vn -0.2144 0.0000 0.9767
vn 0.0000 0.0000 -1.0000
vn 0.0342 0.0000 0.9994
vn 0.9999 0.0000 -0.0101
vn -0.9998 0.0000 0.0206
vn 0.2068 0.0000 -0.9784
vn 0.0715 0.0000 0.9974
vn -0.2248 0.0000 0.9744
vn 0.0000 0.0000 1.0000
vn 0.9951 0.0000 -0.0989
vn 0.1653 0.0000 -0.9862
vn -1.0000 0.0000 -0.0089
vn 0.1737 0.0000 -0.9848
vn -0.1080 0.0000 -0.9942
vn 0.1830 0.0000 -0.9831
vn 0.0924 0.0000 0.9957
vn -0.1059 0.0000 0.9944
vn -0.4902 0.0000 0.8716
vn 0.0701 0.0000 0.9975
vn -0.0474 0.0000 -0.9989
vn 0.1428 0.0000 -0.9898
vn 0.0199 0.0000 -0.9998
vn 0.9980 0.0000 -0.0626
vn -0.9916 0.0000 0.1292
vn -0.0219 0.0000 0.9998
vn -0.1737 0.0000 0.9848
vn 0.9994 0.0000 0.0351
vn 0.0995 0.0000 -0.9950
vn 0.0404 0.0000 0.9992
vn -0.0832 0.0000 0.9965
vn -0.9986 0.0000 -0.0526
vn -0.0339 0.0000 -0.9994
vn 0.0477 0.0000 -0.9989
vn 0.9998 0.0000 -0.0189
vn -0.0525 0.0000 0.9986
vn -0.1069 0.0000 0.9943
vn -0.9999 0.0000 -0.0171
vn -0.3404 0.0000 0.9403
vn 0.3413 0.0000 0.9400
usemtl SVGMat
s off
f 7//1 9//1 8//1
f 7//1 10//1 9//1
f 6//1 10//1 7//1
f 5//1 10//1 6//1
f 4//1 46//1 5//1
f 46//1 45//1 5//1
f 45//1 10//1 5//1
f 3//1 46//1 4//1
f 1//1 3//1 2//1
f 1//1 47//1 3//1
f 47//1 46//1 3//1
f 1//1 56//1 47//1
f 56//1 48//1 47//1
f 44//1 10//1 45//1
f 44//1 24//1 10//1
f 24//1 13//1 10//1
f 13//1 11//1 10//1
f 58//1 57//1 1//1
f 57//1 56//1 1//1
f 13//1 12//1 11//1
f 24//1 14//1 13//1
f 24//1 15//1 14//1
f 55//1 48//1 56//1
f 24//1 16//1 15//1
f 54//1 48//1 55//1
f 24//1 17//1 16//1
f 17//1 19//1 18//1
f 24//1 23//1 17//1
f 23//1 19//1 17//1
f 23//1 21//1 19//1
f 21//1 20//1 19//1
f 22//1 21//1 23//1
f 24//1 26//1 25//1
f 44//1 33//1 24//1
f 33//1 26//1 24//1
f 52//1 54//1 53//1
f 52//1 51//1 54//1
f 51//1 48//1 54//1
f 33//1 32//1 26//1
f 32//1 27//1 26//1
f 50//1 49//1 51//1
f 49//1 48//1 51//1
f 44//1 34//1 33//1
f 31//1 27//1 32//1
f 31//1 28//1 27//1
f 31//1 30//1 28//1
f 30//1 29//1 28//1
f 43//1 34//1 44//1
f 34//1 36//1 35//1
f 34//1 41//1 36//1
f 41//1 37//1 36//1
f 43//1 42//1 34//1
f 42//1 41//1 34//1
f 40//1 37//1 41//1
f 39//1 38//1 40//1
f 38//1 37//1 40//1
f 65//2 66//2 67//2
f 65//2 67//2 68//2
f 64//2 65//2 68//2
f 63//2 64//2 68//2
f 62//2 63//2 104//2
f 104//2 63//2 103//2
f 103//2 63//2 68//2
f 61//2 62//2 104//2
f 59//2 60//2 61//2
f 59//2 61//2 105//2
f 105//2 61//2 104//2
f 59//2 105//2 114//2
f 114//2 105//2 106//2
f 102//2 103//2 68//2
f 102//3 68//3 82//3
f 82//2 68//2 71//2
f 71//4 68//4 69//4
f 116//2 59//2 115//2
f 115//2 59//2 114//2
f 71//5 69//5 70//5
f 82//2 71//2 72//2
f 82//2 72//2 73//2
f 113//2 114//2 106//2
f 82//2 73//2 74//2
f 112//2 113//2 106//2
f 82//2 74//2 75//2
f 75//2 76//2 77//2
f 82//2 75//2 81//2
f 81//2 75//2 77//2
f 81//2 77//2 79//2
f 79//2 77//2 78//2
f 80//2 81//2 79//2
f 82//2 83//2 84//2
f 102//2 82//2 91//2
f 91//2 82//2 84//2
f 110//2 111//2 112//2
f 110//2 112//2 109//2
f 109//2 112//2 106//2
f 91//2 84//2 90//2
f 90//2 84//2 85//2
f 108//2 109//2 107//2
f 107//2 109//2 106//2
f 102//2 91//2 92//2
f 89//2 90//2 85//2
f 89//2 85//2 86//2
f 89//6 86//6 88//6
f 88//2 86//2 87//2
f 101//2 102//2 92//2
f 92//7 93//7 94//7
f 92//2 94//2 99//2
f 99//2 94//2 95//2
f 101//8 92//8 100//8
f 100//9 92//9 99//9
f 98//2 99//2 95//2
f 97//2 98//2 96//2
f 96//10 98//10 95//10
f 7//11 8//11 66//11 65//11
f 8//12 9//12 67//12 66//12
f 9//13 10//13 68//13 67//13
f 6//14 7//14 65//14 64//14
f 5//15 6//15 64//15 63//15
f 4//16 5//16 63//16 62//16
f 45//17 46//17 104//17 103//17
f 3//15 4//15 62//15 61//15
f 1//15 2//15 60//15 59//15
f 2//18 3//18 61//18 60//18
f 46//19 47//19 105//19 104//19
f 47//20 48//20 106//20 105//20
f 44//21 45//21 103//21 102//21
f 10//22 11//22 69//22 68//22
f 58//15 1//15 59//15 116//15
f 57//23 58//23 116//23 115//23
f 56//24 57//24 115//24 114//24
f 12//25 13//25 71//25 70//25
f 11//13 12//13 70//13 69//13
f 13//26 14//26 72//26 71//26
f 14//27 15//27 73//27 72//27
f 55//15 56//15 114//15 113//15
f 15//13 16//13 74//13 73//13
f 54//28 55//28 113//28 112//28
f 16//29 17//29 75//29 74//29
f 17//30 18//30 76//30 75//30
f 18//31 19//31 77//31 76//31
f 23//32 24//32 82//32 81//32
f 20//33 21//33 79//33 78//33
f 19//13 20//13 78//13 77//13
f 22//34 23//34 81//34 80//34
f 21//35 22//35 80//35 79//35
f 24//36 25//36 83//36 82//36
f 25//37 26//37 84//37 83//37
f 52//15 53//15 111//15 110//15
f 53//38 54//38 112//38 111//38
f 51//25 52//25 110//25 109//25
f 32//25 33//25 91//25 90//25
f 26//39 27//39 85//39 84//39
f 50//40 51//40 109//40 108//40
f 49//41 50//41 108//41 107//41
f 48//42 49//42 107//42 106//42
f 33//43 34//43 92//43 91//43
f 31//15 32//15 90//15 89//15
f 27//44 28//44 86//44 85//44
f 30//45 31//45 89//45 88//45
f 29//46 30//46 88//46 87//46
f 28//13 29//13 87//13 86//13
f 43//47 44//47 102//47 101//47
f 34//48 35//48 93//48 92//48
f 35//49 36//49 94//49 93//49
f 36//50 37//50 95//50 94//50
f 42//51 43//51 101//51 100//51
f 41//52 42//52 100//52 99//52
f 40//53 41//53 99//53 98//53
f 39//54 40//54 98//54 97//54
f 38//55 39//55 97//55 96//55
f 37//25 38//25 96//25 95//25
