# Blender v2.81 (sub 16) OBJ File: ''
# www.blender.org
mtllib 3.mtl
o Curve.004
v 0.038009 0.000000 0.018690
v 0.021357 0.000000 0.029073
v -0.002096 0.000000 0.021376
v -0.004780 0.000000 0.022806
v -0.005316 0.000000 -0.012098
v 0.024761 0.000000 -0.026773
v 0.022074 0.000000 -0.027490
v 0.033713 0.000000 -0.032860
v 0.021896 0.000000 -0.044316
v 0.011691 0.000000 -0.039482
v -0.014627 0.000000 -0.029282
v -0.019281 0.000000 -0.026954
v -0.031278 0.000000 -0.019612
v -0.028772 0.000000 -0.019612
v -0.028772 0.000000 0.005445
v -0.037902 0.000000 0.010456
v -0.039513 0.000000 0.008845
v -0.038797 0.000000 0.016365
v -0.040586 0.000000 0.017617
v -0.007286 0.000000 0.027998
v -0.001737 0.000000 0.024957
v 0.022255 0.000000 0.032651
v 0.044813 0.000000 0.018870
v 0.041065 0.000000 0.017231
v 0.036220 0.000000 0.015112
v 0.033174 0.000000 0.017437
v 0.038009 -0.010000 0.018690
v 0.021357 -0.010000 0.029073
v -0.002096 -0.010000 0.021376
v -0.004780 -0.010000 0.022806
v -0.005316 -0.010000 -0.012098
v 0.024761 -0.010000 -0.026773
v 0.022074 -0.010000 -0.027490
v 0.033713 -0.010000 -0.032860
v 0.021896 -0.010000 -0.044316
v 0.011691 -0.010000 -0.039482
v -0.014627 -0.010000 -0.029282
v -0.019281 -0.010000 -0.026954
v -0.031278 -0.010000 -0.019612
v -0.028772 -0.010000 -0.019612
v -0.028772 -0.010000 0.005445
v -0.037902 -0.010000 0.010456
v -0.039513 -0.010000 0.008845
v -0.038797 -0.010000 0.016365
v -0.040586 -0.010000 0.017617
v -0.007286 -0.010000 0.027998
v -0.001737 -0.010000 0.024957
v 0.022255 -0.010000 0.032651
v 0.044813 -0.010000 0.018870
v 0.041065 -0.010000 0.017231
v 0.036220 -0.010000 0.015112
v 0.033174 -0.010000 0.017437
v 0.015273 0.000000 -0.015856
v 0.014197 0.000000 -0.014245
v 0.021002 0.000000 -0.011739
v 0.017507 0.000000 -0.009306
v 0.014912 0.000000 -0.006550
v 0.013105 0.000000 -0.003573
v 0.011971 0.000000 -0.000476
v 0.011396 0.000000 0.002638
v 0.011267 0.000000 0.005668
v 0.011470 0.000000 0.008511
v 0.011892 0.000000 0.011065
v 0.012417 0.000000 0.013230
v 0.012934 0.000000 0.014902
v 0.013327 0.000000 0.015980
v 0.013483 0.000000 0.016362
v 0.013755 0.000000 0.016415
v 0.014505 0.000000 0.016561
v 0.015637 0.000000 0.016782
v 0.017058 0.000000 0.017058
v 0.018669 0.000000 0.017372
v 0.020377 0.000000 0.017705
v 0.022084 0.000000 0.018038
v 0.023696 0.000000 0.018352
v 0.025116 0.000000 0.018628
v 0.026249 0.000000 0.018849
v 0.026999 0.000000 0.018995
v 0.027270 0.000000 0.019048
v 0.029598 0.000000 0.019048
v 0.029421 0.000000 -0.010128
v 0.035776 0.000000 -0.008517
v 0.036225 0.000000 0.015112
v 0.040165 0.000000 0.013681
v 0.039987 0.000000 -0.007888
v 0.046611 0.000000 -0.005828
v 0.046789 0.000000 0.000078
v 0.055024 0.000000 -0.004397
v 0.057353 0.000000 -0.005828
v 0.015273 -0.010000 -0.015856
v 0.014197 -0.010000 -0.014245
v 0.021002 -0.010000 -0.011739
v 0.017507 -0.010000 -0.009306
v 0.014912 -0.010000 -0.006550
v 0.013105 -0.010000 -0.003573
v 0.011971 -0.010000 -0.000476
v 0.011396 -0.010000 0.002638
v 0.011267 -0.010000 0.005668
v 0.011470 -0.010000 0.008511
v 0.011892 -0.010000 0.011065
v 0.012417 -0.010000 0.013230
v 0.012934 -0.010000 0.014902
v 0.013327 -0.010000 0.015980
v 0.013483 -0.010000 0.016362
v 0.013755 -0.010000 0.016415
v 0.014505 -0.010000 0.016561
v 0.015637 -0.010000 0.016782
v 0.017058 -0.010000 0.017058
v 0.018669 -0.010000 0.017372
v 0.020377 -0.010000 0.017705
v 0.022084 -0.010000 0.018038
v 0.023696 -0.010000 0.018352
v 0.025116 -0.010000 0.018628
v 0.026249 -0.010000 0.018849
v 0.026999 -0.010000 0.018995
v 0.027270 -0.010000 0.019048
v 0.029598 -0.010000 0.019048
v 0.029421 -0.010000 -0.010128
v 0.035776 -0.010000 -0.008517
v 0.036225 -0.010000 0.015112
v 0.040165 -0.010000 0.013681
v 0.039987 -0.010000 -0.007888
v 0.046611 -0.010000 -0.005828
v 0.046789 -0.010000 0.000078
v 0.055024 -0.010000 -0.004397
v 0.057353 -0.010000 -0.005828
vn 0.0000 1.0000 0.0000
vn 0.0000 -1.0000 0.0000
vn -0.0000 -1.0000 0.0001
vn -0.0000 -1.0000 -0.0001
vn -0.0000 -1.0000 0.0002
vn -0.4280 0.0000 -0.9038
vn 0.6961 0.0000 -0.7180
vn -0.3614 0.0000 -0.9324
vn 0.4189 0.0000 0.9080
vn -0.4474 0.0000 -0.8944
vn 0.2577 0.0000 -0.9662
vn -0.5220 0.0000 -0.8530
vn 0.0000 0.0000 1.0000
vn 0.4385 0.0000 0.8987
vn -1.0000 0.0000 0.0000
vn 0.9999 0.0000 -0.0154
vn -0.4812 0.0000 -0.8766
vn -0.9955 0.0000 0.0949
vn 0.7070 0.0000 -0.7072
vn -0.6069 0.0000 -0.7948
vn 0.4007 0.0000 -0.9162
vn -0.5736 0.0000 -0.8192
vn -0.2509 0.0000 0.9680
vn -0.2976 0.0000 0.9547
vn -0.5291 0.0000 -0.8485
vn 0.5213 0.0000 0.8534
vn -0.4704 0.0000 -0.8825
vn 0.3118 0.0000 -0.9501
vn 0.4807 0.0000 0.8769
vn -0.3054 0.0000 0.9522
vn 0.0000 -1.0000 -0.0002
vn -0.0002 -1.0000 0.0013
vn 0.0000 -1.0000 -0.0004
vn -0.0001 -1.0000 0.0000
vn 0.0001 -1.0000 -0.0001
vn -0.0001 -1.0000 0.0001
vn -0.0066 -0.9992 0.0401
vn 0.0022 -0.9999 -0.0135
vn -0.0015 -1.0000 0.0090
vn 0.0009 -1.0000 -0.0060
vn -0.0004 -1.0000 0.0031
vn 0.0002 -1.0000 -0.0021
vn -0.8318 0.0000 -0.5551
vn 0.2318 0.0000 -0.9728
vn -0.3456 0.0000 0.9384
vn -0.5713 0.0000 -0.8207
vn 1.0000 0.0000 -0.0061
vn -0.2457 0.0000 0.9693
vn -0.7281 0.0000 -0.6854
vn -0.9998 0.0000 0.0190
vn 0.3413 0.0000 0.9400
vn 1.0000 0.0000 -0.0082
vn -0.2969 0.0000 0.9549
vn -0.8548 0.0000 -0.5189
vn -0.9995 0.0000 0.0301
vn 0.4775 0.0000 0.8786
vn 0.5235 0.0000 0.8520
vn -0.9390 0.0000 -0.3439
vn -0.9834 0.0000 -0.1815
vn -0.9991 0.0000 -0.0425
vn -0.9975 0.0000 0.0713
vn -0.9867 0.0000 0.1627
vn -0.9717 0.0000 0.2360
vn -0.9555 0.0000 0.2951
vn -0.9394 0.0000 0.3427
vn -0.9255 0.0000 0.3788
vn -0.1913 0.0000 0.9815
vn -0.1912 0.0000 0.9815
vn -0.1911 0.0000 0.9816
usemtl SVGMat
s off
f 10//1 8//1 9//1
f 11//1 8//1 10//1
f 11//1 7//1 8//1
f 12//1 7//1 11//1
f 12//1 6//1 7//1
f 13//1 6//1 12//1
f 13//1 14//1 6//1
f 14//1 5//1 6//1
f 15//1 5//1 14//1
f 15//1 4//1 5//1
f 16//1 4//1 15//1
f 18//1 16//1 17//1
f 18//1 4//1 16//1
f 26//1 24//1 25//1
f 19//1 4//1 18//1
f 26//1 23//1 24//1
f 1//1 23//1 26//1
f 20//1 4//1 19//1
f 2//1 23//1 1//1
f 2//1 22//1 23//1
f 4//1 2//1 3//1
f 20//1 21//1 4//1
f 21//1 2//1 4//1
f 22//1 2//1 21//1
f 36//2 35//2 34//2
f 37//2 36//2 34//2
f 37//2 34//2 33//2
f 38//3 37//3 33//3
f 38//2 33//2 32//2
f 39//4 38//4 32//4
f 39//2 32//2 40//2
f 40//2 32//2 31//2
f 41//2 40//2 31//2
f 41//2 31//2 30//2
f 42//2 41//2 30//2
f 44//2 43//2 42//2
f 44//2 42//2 30//2
f 52//2 51//2 50//2
f 45//5 44//5 30//5
f 52//2 50//2 49//2
f 27//2 52//2 49//2
f 46//2 45//2 30//2
f 28//2 27//2 49//2
f 28//2 49//2 48//2
f 30//2 29//2 28//2
f 46//2 30//2 47//2
f 47//2 30//2 28//2
f 48//2 47//2 28//2
f 10//6 9//6 35//6 36//6
f 9//7 8//7 34//7 35//7
f 11//8 10//8 36//8 37//8
f 8//9 7//9 33//9 34//9
f 12//10 11//10 37//10 38//10
f 7//11 6//11 32//11 33//11
f 13//12 12//12 38//12 39//12
f 14//13 13//13 39//13 40//13
f 6//14 5//14 31//14 32//14
f 15//15 14//15 40//15 41//15
f 5//16 4//16 30//16 31//16
f 16//17 15//17 41//17 42//17
f 18//18 17//18 43//18 44//18
f 17//19 16//19 42//19 43//19
f 26//20 25//20 51//20 52//20
f 25//21 24//21 50//21 51//21
f 19//22 18//22 44//22 45//22
f 24//21 23//21 49//21 50//21
f 1//23 26//23 52//23 27//23
f 20//24 19//24 45//24 46//24
f 2//25 1//25 27//25 28//25
f 23//26 22//26 48//26 49//26
f 4//27 3//27 29//27 30//27
f 3//28 2//28 28//28 29//28
f 21//29 20//29 46//29 47//29
f 22//30 21//30 47//30 48//30
f 54//1 89//1 53//1
f 55//1 89//1 54//1
f 56//1 81//1 55//1
f 81//1 89//1 55//1
f 56//1 80//1 81//1
f 82//1 89//1 81//1
f 57//1 80//1 56//1
f 83//1 85//1 82//1
f 85//1 89//1 82//1
f 83//1 84//1 85//1
f 86//1 89//1 85//1
f 58//1 80//1 57//1
f 87//1 89//1 86//1
f 87//1 88//1 89//1
f 59//1 80//1 58//1
f 60//1 80//1 59//1
f 61//1 80//1 60//1
f 62//1 80//1 61//1
f 63//1 80//1 62//1
f 64//1 80//1 63//1
f 65//1 80//1 64//1
f 66//1 80//1 65//1
f 67//1 80//1 66//1
f 68//1 80//1 67//1
f 69//1 80//1 68//1
f 70//1 80//1 69//1
f 71//1 80//1 70//1
f 72//1 80//1 71//1
f 73//1 80//1 72//1
f 74//1 80//1 73//1
f 75//1 80//1 74//1
f 76//1 80//1 75//1
f 77//1 80//1 76//1
f 78//1 80//1 77//1
f 79//1 80//1 78//1
f 91//31 90//31 126//31
f 92//2 91//2 126//2
f 93//2 92//2 118//2
f 118//32 92//32 126//32
f 93//2 118//2 117//2
f 119//33 118//33 126//33
f 94//34 93//34 117//34
f 120//2 119//2 122//2
f 122//2 119//2 126//2
f 120//2 122//2 121//2
f 123//2 122//2 126//2
f 95//35 94//35 117//35
f 124//2 123//2 126//2
f 124//2 126//2 125//2
f 96//2 95//2 117//2
f 97//36 96//36 117//36
f 98//35 97//35 117//35
f 99//36 98//36 117//36
f 100//35 99//35 117//35
f 101//2 100//2 117//2
f 102//2 101//2 117//2
f 103//2 102//2 117//2
f 104//2 103//2 117//2
f 105//37 104//37 117//37
f 106//38 105//38 117//38
f 107//39 106//39 117//39
f 108//40 107//40 117//40
f 109//2 108//2 117//2
f 110//2 109//2 117//2
f 111//2 110//2 117//2
f 112//41 111//41 117//41
f 113//42 112//42 117//42
f 114//2 113//2 117//2
f 115//2 114//2 117//2
f 116//2 115//2 117//2
f 54//43 53//43 90//43 91//43
f 53//44 89//44 126//44 90//44
f 55//45 54//45 91//45 92//45
f 56//46 55//46 92//46 93//46
f 81//47 80//47 117//47 118//47
f 82//48 81//48 118//48 119//48
f 57//49 56//49 93//49 94//49
f 83//50 82//50 119//50 120//50
f 84//51 83//51 120//51 121//51
f 85//52 84//52 121//52 122//52
f 86//53 85//53 122//53 123//53
f 58//54 57//54 94//54 95//54
f 87//55 86//55 123//55 124//55
f 88//56 87//56 124//56 125//56
f 89//57 88//57 125//57 126//57
f 59//58 58//58 95//58 96//58
f 60//59 59//59 96//59 97//59
f 61//60 60//60 97//60 98//60
f 62//61 61//61 98//61 99//61
f 63//62 62//62 99//62 100//62
f 64//63 63//63 100//63 101//63
f 65//64 64//64 101//64 102//64
f 66//65 65//65 102//65 103//65
f 67//66 66//66 103//66 104//66
f 68//67 67//67 104//67 105//67
f 69//68 68//68 105//68 106//68
f 70//68 69//68 106//68 107//68
f 71//68 70//68 107//68 108//68
f 72//67 71//67 108//67 109//67
f 73//67 72//67 109//67 110//67
f 74//67 73//67 110//67 111//67
f 75//67 74//67 111//67 112//67
f 76//68 75//68 112//68 113//68
f 77//68 76//68 113//68 114//68
f 78//68 77//68 114//68 115//68
f 79//69 78//69 115//69 116//69
f 80//13 79//13 116//13 117//13
