# Blender v2.81 (sub 16) OBJ File: ''
# www.blender.org
mtllib 8.mtl
o Curve.010
v -0.140904 0.000000 0.017433
v -0.131952 0.000000 0.024236
v -0.106529 0.000000 0.024236
v -0.104023 0.000000 0.020836
v -0.102231 0.000000 0.020297
v -0.100441 0.000000 0.020836
v -0.097935 0.000000 0.024236
v -0.092564 0.000000 0.017433
v -0.088983 0.000000 0.020836
v -0.085043 0.000000 0.024236
v -0.080747 0.000000 0.018866
v -0.074301 0.000000 0.017433
v -0.071795 0.000000 0.017433
v -0.069647 0.000000 0.020297
v -0.063918 0.000000 0.017433
v -0.060695 0.000000 0.017433
v -0.056758 0.000000 0.018866
v -0.053177 0.000000 0.020836
v -0.047447 0.000000 0.020297
v -0.045658 0.000000 0.022447
v -0.041718 0.000000 0.020836
v -0.016295 0.000000 0.017433
v -0.009135 0.000000 0.011169
v -0.018443 0.000000 0.008485
v -0.018801 0.000000 -0.003329
v 0.006263 0.000000 -0.003329
v 0.011276 0.000000 0.001324
v 0.020228 0.000000 0.000607
v 0.024165 0.000000 -0.003329
v 0.066776 0.000000 -0.003329
v 0.071788 0.000000 -0.003329
v 0.185656 0.000000 -0.003329
v 0.192099 0.000000 -0.011204
v -0.078958 0.000000 -0.011204
v -0.081823 0.000000 -0.008340
v -0.078600 0.000000 -0.007985
v -0.075377 0.000000 -0.004762
v -0.076807 0.000000 0.008485
v -0.140904 -0.010000 0.017433
v -0.131952 -0.010000 0.024236
v -0.106529 -0.010000 0.024236
v -0.104023 -0.010000 0.020836
v -0.102231 -0.010000 0.020297
v -0.100441 -0.010000 0.020836
v -0.097935 -0.010000 0.024236
v -0.092564 -0.010000 0.017433
v -0.088983 -0.010000 0.020836
v -0.085043 -0.010000 0.024236
v -0.080747 -0.010000 0.018866
v -0.074301 -0.010000 0.017433
v -0.071795 -0.010000 0.017433
v -0.069647 -0.010000 0.020297
v -0.063918 -0.010000 0.017433
v -0.060695 -0.010000 0.017433
v -0.056758 -0.010000 0.018866
v -0.053177 -0.010000 0.020836
v -0.047447 -0.010000 0.020297
v -0.045658 -0.010000 0.022447
v -0.041718 -0.010000 0.020836
v -0.016295 -0.010000 0.017433
v -0.009135 -0.010000 0.011169
v -0.018443 -0.010000 0.008485
v -0.018801 -0.010000 -0.003329
v 0.006263 -0.010000 -0.003329
v 0.011276 -0.010000 0.001324
v 0.020228 -0.010000 0.000607
v 0.024165 -0.010000 -0.003329
v 0.066776 -0.010000 -0.003329
v 0.071788 -0.010000 -0.003329
v 0.185656 -0.010000 -0.003329
v 0.192099 -0.010000 -0.011204
v -0.078958 -0.010000 -0.011204
v -0.081823 -0.010000 -0.008340
v -0.078600 -0.010000 -0.007985
v -0.075377 -0.010000 -0.004762
v -0.076807 -0.010000 0.008485
vn 0.0000 1.0000 0.0000
vn 0.0000 0.0000 1.0000
vn 0.0000 -1.0000 0.0000
vn -0.0000 -1.0000 0.0003
vn 0.0000 0.0000 -1.0000
vn -0.0000 -1.0000 -0.0001
vn 0.0000 -1.0000 0.0001
vn 0.0001 -1.0000 -0.0005
vn -0.7070 0.0000 -0.7072
vn 0.7740 0.0000 0.6332
vn -0.1096 0.0000 0.9940
vn -0.7070 0.0000 0.7072
vn -0.9942 0.0000 -0.1074
vn 0.9995 0.0000 -0.0303
vn -0.6803 0.0000 0.7329
vn 0.0798 0.0000 0.9968
vn 0.7070 0.0000 0.7072
vn -0.1383 0.0000 -0.9904
vn 0.2770 0.0000 -0.9609
vn 0.6584 0.0000 0.7526
vn -0.6050 0.0000 0.7962
vn -0.2884 0.0000 0.9575
vn -0.8050 0.0000 0.5933
vn 0.7849 0.0000 0.6196
vn -0.6888 0.0000 0.7249
vn 0.2171 0.0000 0.9762
vn -0.8000 0.0000 0.6000
vn 0.4471 0.0000 0.8945
vn -0.3421 0.0000 0.9397
vn 0.1327 0.0000 0.9912
vn -0.6533 0.0000 0.7571
vn 0.7809 0.0000 0.6247
vn -0.4819 0.0000 0.8762
vn 0.0937 0.0000 0.9956
vn 0.2880 0.0000 0.9576
vn -0.7686 0.0000 0.6397
vn 0.3785 0.0000 0.9256
vn 0.8050 0.0000 0.5933
usemtl SVGMat
s off
f 35//1 33//1 34//1
f 35//1 32//1 33//1
f 36//1 32//1 35//1
f 37//1 32//1 36//1
f 38//1 25//1 37//1
f 25//1 32//1 37//1
f 38//1 24//1 25//1
f 26//2 32//2 25//2
f 27//1 29//1 26//1
f 29//2 32//2 26//2
f 27//1 28//1 29//1
f 30//2 32//2 29//2
f 31//2 32//2 30//2
f 1//1 24//1 38//1
f 1//1 23//1 24//1
f 1//1 22//1 23//1
f 2//1 8//1 1//1
f 8//2 22//2 1//2
f 2//1 5//1 8//1
f 5//1 6//1 8//1
f 6//1 7//1 8//1
f 9//1 11//1 8//1
f 11//1 12//1 8//1
f 12//2 22//2 8//2
f 13//2 22//2 12//2
f 14//1 15//1 13//1
f 15//2 22//2 13//2
f 16//2 22//2 15//2
f 17//1 22//1 16//1
f 17//1 21//1 22//1
f 9//1 10//1 11//1
f 18//1 19//1 17//1
f 19//1 21//1 17//1
f 2//1 4//1 5//1
f 20//1 21//1 19//1
f 2//1 3//1 4//1
f 73//3 72//3 71//3
f 73//3 71//3 70//3
f 74//3 73//3 70//3
f 75//3 74//3 70//3
f 76//3 75//3 63//3
f 63//4 75//4 70//4
f 76//3 63//3 62//3
f 64//5 63//5 70//5
f 65//3 64//3 67//3
f 67//2 64//2 70//2
f 65//6 67//6 66//6
f 68//5 67//5 70//5
f 69//2 68//2 70//2
f 39//3 76//3 62//3
f 39//3 62//3 61//3
f 39//3 61//3 60//3
f 40//3 39//3 46//3
f 46//2 39//2 60//2
f 40//3 46//3 43//3
f 43//3 46//3 44//3
f 44//3 46//3 45//3
f 47//3 46//3 49//3
f 49//3 46//3 50//3
f 50//2 46//2 60//2
f 51//2 50//2 60//2
f 52//7 51//7 53//7
f 53//2 51//2 60//2
f 54//2 53//2 60//2
f 55//3 54//3 60//3
f 55//6 60//6 59//6
f 47//3 49//3 48//3
f 56//6 55//6 57//6
f 57//8 55//8 59//8
f 40//3 43//3 42//3
f 58//3 57//3 59//3
f 40//3 42//3 41//3
f 35//9 34//9 72//9 73//9
f 34//5 33//5 71//5 72//5
f 33//10 32//10 70//10 71//10
f 36//11 35//11 73//11 74//11
f 37//12 36//12 74//12 75//12
f 38//13 37//13 75//13 76//13
f 25//14 24//14 62//14 63//14
f 26//2 25//2 63//2 64//2
f 27//15 26//15 64//15 65//15
f 28//16 27//16 65//16 66//16
f 29//17 28//17 66//17 67//17
f 30//2 29//2 67//2 68//2
f 31//2 30//2 68//2 69//2
f 32//2 31//2 69//2 70//2
f 1//18 38//18 76//18 39//18
f 24//19 23//19 61//19 62//19
f 23//20 22//20 60//20 61//20
f 2//21 1//21 39//21 40//21
f 6//22 5//22 43//22 44//22
f 7//23 6//23 44//23 45//23
f 8//24 7//24 45//24 46//24
f 9//25 8//25 46//25 47//25
f 12//26 11//26 49//26 50//26
f 13//2 12//2 50//2 51//2
f 14//27 13//27 51//27 52//27
f 15//28 14//28 52//28 53//28
f 16//2 15//2 53//2 54//2
f 17//29 16//29 54//29 55//29
f 22//30 21//30 59//30 60//30
f 10//31 9//31 47//31 48//31
f 11//32 10//32 48//32 49//32
f 18//33 17//33 55//33 56//33
f 19//34 18//34 56//34 57//34
f 5//35 4//35 42//35 43//35
f 20//36 19//36 57//36 58//36
f 21//37 20//37 58//37 59//37
f 3//2 2//2 40//2 41//2
f 4//38 3//38 41//38 42//38
