# Blender v2.81 (sub 16) OBJ File: ''
# www.blender.org
mtllib 9.mtl
o Curve.011
v -0.024297 0.000000 0.009216
v -0.024297 0.000000 -0.010474
v -0.028236 0.000000 -0.015130
v -0.000304 0.000000 -0.016560
v 0.019387 0.000000 -0.011191
v 0.019387 0.000000 0.009216
v -0.024297 -0.010000 0.009216
v -0.024297 -0.010000 -0.010474
v -0.028236 -0.010000 -0.015130
v -0.000304 -0.010000 -0.016560
v 0.019387 -0.010000 -0.011191
v 0.019387 -0.010000 0.009216
vn 0.0000 1.0000 0.0000
vn 0.0000 -1.0000 0.0000
vn -0.0000 -1.0000 0.0001
vn -0.0511 0.0000 -0.9987
vn 0.2631 0.0000 -0.9648
vn -0.7634 0.0000 0.6460
vn 1.0000 0.0000 0.0000
vn -1.0000 0.0000 0.0000
vn 0.0000 0.0000 1.0000
usemtl SVGMat
s off
f 3//1 5//1 4//1
f 2//1 5//1 3//1
f 2//1 6//1 5//1
f 1//1 6//1 2//1
f 9//2 10//2 11//2
f 8//3 9//3 11//3
f 8//2 11//2 12//2
f 7//2 8//2 12//2
f 3//4 4//4 10//4 9//4
f 4//5 5//5 11//5 10//5
f 2//6 3//6 9//6 8//6
f 5//7 6//7 12//7 11//7
f 1//8 2//8 8//8 7//8
f 6//9 1//9 7//9 12//9
